<?xml version="1.0" encoding="UTF-8"?>
<svg xmlns="http://www.w3.org/2000/svg" xmlns:xlink="http://www.w3.org/1999/xlink" width="480" height="270" viewBox="305 410 480 270">
<path fill-rule="nonzero" fill="rgb(83.499146%, 16.899109%, 11.799622%)" fill-opacity="1" d="M 684.761719 468.5625 C 682.742188 469.132812 680.648438 467.964844 680.082031 465.964844 C 679.511719 463.964844 680.679688 461.851562 682.699219 461.28125 C 684.710938 460.714844 686.789062 461.894531 687.359375 463.894531 C 687.929688 465.894531 686.75 467.992188 684.761719 468.5625 M 722.820312 497.042969 L 704.242188 469.453125 C 700.871094 464.472656 696.109375 460.761719 690.761719 458.703125 C 684.960938 456.472656 678.46875 456.183594 672.320312 458.28125 C 667.082031 460.074219 661.121094 463.324219 654.550781 468.78125 C 654.980469 468.601562 665.609375 464.253906 683.21875 484.421875 C 687.78125 489.652344 692.820312 496.523438 698.261719 505.53125 C 699.71875 507.941406 701.199219 510.511719 702.710938 513.242188 C 709.148438 524.863281 721.859375 531.902344 735.058594 530.453125 C 737.851562 530.152344 740.851562 529.574219 744.082031 528.644531 Z M 722.820312 497.042969 "/>
<path fill-rule="nonzero" fill="rgb(83.499146%, 16.899109%, 11.799622%)" fill-opacity="1" d="M 752.21875 430.699219 C 752.21875 430.699219 754.644531 469.207031 720.117188 486.621094 L 704.527344 462.203125 Z M 752.21875 430.699219 "/>
<path fill-rule="nonzero" fill="rgb(0%, 19.999695%, 59.999084%)" fill-opacity="1" d="M 581.179688 590.386719 C 580.445312 589.503906 580.6875 587.628906 580.707031 586.675781 L 580.8125 581.675781 L 580.886719 522.683594 C 580.886719 521.925781 579.921875 521.472656 579.722656 521.632812 C 579.457031 521.851562 578.925781 522.363281 578.703125 522.691406 L 573.917969 529.703125 L 565.152344 542.605469 L 539.410156 580.023438 L 528.664062 580.082031 L 508 549.910156 L 491.070312 525.011719 L 488.679688 521.699219 L 488.28125 521.144531 C 488.183594 521.007812 487.910156 521.191406 487.359375 521.457031 L 487.375 590.394531 L 469.203125 590.554688 C 467.976562 590.5625 466.976562 590.695312 465.640625 590.222656 L 465.65625 489.242188 L 491.953125 489.203125 L 502 503.84375 L 508.179688 512.675781 L 522.0625 533.074219 L 532.652344 548.855469 C 532.90625 549.234375 533.78125 549.863281 534.203125 549.953125 C 534.714844 550.058594 535.460938 549.289062 535.875 548.675781 L 558.136719 515.917969 L 573.578125 493.703125 L 576.832031 489.238281 L 602.628906 489.25 L 602.640625 590.449219 L 590.472656 590.617188 C 587.609375 590.65625 584.410156 590.515625 581.179688 590.386719 "/>
<path fill-rule="nonzero" fill="rgb(0%, 19.999695%, 59.999084%)" fill-opacity="1" d="M 381.179688 572.742188 C 388.738281 573.152344 401.703125 573.28125 408.894531 571.800781 C 418.441406 569.835938 426.585938 564.378906 428.839844 554.523438 C 429.140625 553.203125 429.925781 552.183594 431.335938 552.191406 L 452.207031 552.308594 C 449.230469 580.691406 429.273438 591.53125 403.050781 592.558594 C 394.917969 592.875 386.976562 592.910156 378.851562 592.554688 C 370.820312 592.207031 363.226562 590.796875 355.8125 587.925781 C 335.746094 580.148438 327.726562 561.398438 327.742188 540.976562 C 327.753906 531.910156 328.703125 523.265625 332.414062 515.007812 C 336.097656 506.804688 341.734375 499.839844 349.589844 495.371094 C 358.765625 490.148438 368.878906 488.082031 379.390625 487.535156 C 393.464844 486.804688 411.503906 487 424.777344 491.542969 C 437.144531 495.773438 447.570312 505.894531 450.4375 518.785156 C 451.277344 521.753906 451.773438 524.433594 451.957031 527.84375 L 429.320312 527.976562 C 428.210938 520.683594 424.109375 514.890625 417.550781 511.566406 C 408.726562 507.09375 394.019531 506.703125 384.132812 507.394531 C 379.347656 507.726562 374.691406 507.980469 370.113281 509.320312 C 361.707031 511.777344 355.160156 517.589844 352.523438 526.027344 C 349.671875 535.15625 349.800781 544.882812 352.515625 554.007812 C 356.488281 567.351562 368.292969 572.042969 381.179688 572.742188 "/>
<path fill-rule="nonzero" fill="rgb(0%, 19.999695%, 59.999084%)" fill-opacity="1" d="M 740.640625 565.773438 C 740.308594 572.734375 740.398438 580.054688 740.5 587.011719 C 740.519531 587.902344 740.742188 590.203125 739.941406 590.394531 L 723.449219 590.625 L 723.320312 578.574219 C 721.300781 578.453125 721.171875 579.703125 720.230469 580.625 C 714.992188 585.792969 708.179688 589.0625 700.980469 590.613281 C 696.621094 591.554688 692.46875 592.433594 688.011719 592.59375 C 680.019531 592.882812 666.5 593.011719 658.78125 592.03125 C 650.378906 590.972656 642.558594 588.941406 635.148438 584.554688 C 625.859375 579.054688 619.460938 569.941406 616.460938 559.492188 C 612.492188 545.671875 612.832031 527.941406 618.910156 514.582031 C 627.910156 494.824219 646.21875 488.574219 666.691406 487.554688 C 667.128906 487.53125 667.570312 487.511719 668 487.492188 C 672.28125 491.171875 677.78125 497.253906 684.308594 507.304688 C 677.75 507.332031 671.429688 507.394531 670.269531 507.484375 L 664.140625 507.984375 C 648.808594 509.214844 637.960938 518.703125 636.699219 534.101562 C 635.5 548.703125 637.820312 562.382812 652.101562 569.375 C 656.769531 571.664062 661.898438 572.5625 667.089844 572.753906 C 674.449219 573.03125 681.621094 573.09375 688.949219 572.734375 C 693.941406 572.484375 698.710938 571.113281 703.179688 569.191406 C 708.320312 566.972656 715.53125 560.402344 715.761719 554.234375 L 681.800781 554.191406 C 681.339844 554.191406 680.148438 553.511719 680.378906 553.261719 L 692.808594 539.601562 L 716.648438 539.574219 L 739.890625 539.554688 L 740.332031 539.554688 L 740.648438 548.722656 C 740.851562 554.433594 740.921875 559.984375 740.640625 565.773438 "/>
<path fill-rule="nonzero" fill="rgb(0%, 19.999695%, 59.999084%)" fill-opacity="1" d="M 333.367188 636.847656 L 336.3125 636.847656 L 336.3125 656.65625 L 333.367188 656.65625 Z M 333.367188 636.847656 "/>
<path fill-rule="nonzero" fill="rgb(0%, 19.999695%, 59.999084%)" fill-opacity="1" d="M 341.914062 656.65625 L 341.914062 636.847656 L 346.417969 636.847656 L 351.671875 649.464844 C 351.808594 649.773438 351.953125 650.148438 352.105469 650.59375 C 352.261719 651.035156 352.417969 651.472656 352.582031 651.90625 C 352.746094 652.339844 352.886719 652.71875 353.003906 653.046875 L 353.175781 653.046875 C 353.289062 652.738281 353.421875 652.371094 353.566406 651.949219 C 353.710938 651.527344 353.863281 651.09375 354.027344 650.648438 C 354.191406 650.207031 354.332031 649.820312 354.445312 649.496094 L 359.703125 636.847656 L 364.175781 636.847656 L 364.175781 656.65625 L 361.230469 656.65625 L 361.230469 644.46875 C 361.230469 644.007812 361.238281 643.488281 361.246094 642.910156 C 361.257812 642.332031 361.269531 641.789062 361.289062 641.277344 C 361.308594 640.769531 361.320312 640.367188 361.320312 640.082031 L 361.085938 640.082031 C 361.011719 640.332031 360.902344 640.664062 360.753906 641.078125 C 360.613281 641.492188 360.46875 641.914062 360.324219 642.347656 C 360.179688 642.78125 360.039062 643.160156 359.90625 643.488281 L 354.359375 656.65625 L 351.644531 656.65625 L 346.101562 643.488281 C 345.945312 643.140625 345.796875 642.765625 345.652344 642.363281 C 345.507812 641.957031 345.367188 641.554688 345.234375 641.148438 C 345.097656 640.746094 344.984375 640.386719 344.886719 640.082031 L 344.65625 640.082031 C 344.675781 640.445312 344.6875 640.886719 344.699219 641.410156 C 344.710938 641.929688 344.71875 642.457031 344.726562 642.996094 C 344.738281 643.535156 344.742188 644.027344 344.742188 644.46875 L 344.742188 656.65625 Z M 341.914062 656.65625 "/>
<path fill-rule="nonzero" fill="rgb(0%, 19.999695%, 59.999084%)" fill-opacity="1" d="M 369.78125 656.65625 L 369.78125 636.847656 L 374.285156 636.847656 L 379.539062 649.464844 C 379.675781 649.773438 379.820312 650.148438 379.972656 650.59375 C 380.128906 651.035156 380.285156 651.472656 380.449219 651.90625 C 380.613281 652.339844 380.753906 652.71875 380.867188 653.046875 L 381.042969 653.046875 C 381.15625 652.738281 381.285156 652.371094 381.433594 651.949219 C 381.574219 651.527344 381.730469 651.09375 381.894531 650.648438 C 382.058594 650.207031 382.195312 649.820312 382.3125 649.496094 L 387.570312 636.847656 L 392.042969 636.847656 L 392.042969 656.65625 L 389.097656 656.65625 L 389.097656 644.46875 C 389.097656 644.007812 389.101562 643.488281 389.113281 642.910156 C 389.125 642.332031 389.136719 641.789062 389.15625 641.277344 C 389.175781 640.769531 389.1875 640.367188 389.1875 640.082031 L 388.953125 640.082031 C 388.878906 640.332031 388.765625 640.664062 388.621094 641.078125 C 388.476562 641.492188 388.335938 641.914062 388.1875 642.347656 C 388.046875 642.78125 387.90625 643.160156 387.769531 643.488281 L 382.226562 656.65625 L 379.511719 656.65625 L 373.96875 643.488281 C 373.8125 643.140625 373.664062 642.765625 373.519531 642.363281 C 373.375 641.957031 373.234375 641.554688 373.101562 641.148438 C 372.964844 640.746094 372.851562 640.386719 372.753906 640.082031 L 372.523438 640.082031 C 372.542969 640.445312 372.554688 640.886719 372.566406 641.410156 C 372.574219 641.929688 372.585938 642.457031 372.59375 642.996094 C 372.605469 643.535156 372.609375 644.027344 372.609375 644.46875 L 372.609375 656.65625 Z M 369.78125 656.65625 "/>
<path fill-rule="nonzero" fill="rgb(0%, 19.999695%, 59.999084%)" fill-opacity="1" d="M 397.648438 636.847656 L 400.59375 636.847656 L 400.59375 656.65625 L 397.648438 656.65625 Z M 397.648438 636.847656 "/>
<path fill-rule="nonzero" fill="rgb(0%, 19.999695%, 59.999084%)" fill-opacity="1" d="M 416.214844 657.003906 C 412.613281 657.003906 409.898438 656.160156 408.070312 654.476562 C 406.242188 652.792969 405.328125 650.214844 405.328125 646.75 C 405.328125 644.5 405.769531 642.613281 406.65625 641.089844 C 407.542969 639.570312 408.832031 638.425781 410.527344 637.65625 C 412.21875 636.882812 414.269531 636.5 416.675781 636.5 C 418.21875 636.5 419.617188 636.644531 420.878906 636.933594 C 422.140625 637.222656 423.226562 637.660156 424.140625 638.246094 C 425.054688 638.832031 425.753906 639.574219 426.234375 640.46875 C 426.714844 641.363281 426.957031 642.429688 426.957031 643.660156 L 424.011719 643.660156 C 424.011719 642.777344 423.820312 642.035156 423.433594 641.4375 C 423.050781 640.839844 422.519531 640.359375 421.847656 639.992188 C 421.171875 639.628906 420.398438 639.371094 419.519531 639.230469 C 418.644531 639.082031 417.714844 639.011719 416.734375 639.011719 C 415.503906 639.011719 414.375 639.148438 413.355469 639.414062 C 412.335938 639.6875 411.449219 640.117188 410.699219 640.714844 C 409.949219 641.3125 409.371094 642.082031 408.964844 643.027344 C 408.5625 643.96875 408.359375 645.09375 408.359375 646.402344 L 408.359375 647.070312 C 408.359375 648.839844 408.683594 650.273438 409.328125 651.371094 C 409.972656 652.46875 410.890625 653.261719 412.085938 653.753906 C 413.277344 654.246094 414.683594 654.488281 416.300781 654.488281 C 418.128906 654.488281 419.613281 654.273438 420.75 653.839844 C 421.882812 653.40625 422.71875 652.777344 423.246094 651.949219 C 423.777344 651.121094 424.042969 650.109375 424.042969 648.917969 L 424.042969 648.542969 L 416.070312 648.542969 L 416.070312 646.117188 L 426.957031 646.117188 L 426.957031 656.65625 L 424.878906 656.65625 L 424.558594 653.941406 C 423.945312 654.671875 423.203125 655.265625 422.335938 655.71875 C 421.46875 656.167969 420.519531 656.496094 419.476562 656.699219 C 418.4375 656.902344 417.351562 657.003906 416.214844 657.003906 "/>
<path fill-rule="nonzero" fill="rgb(0%, 19.999695%, 59.999084%)" fill-opacity="1" d="M 435.273438 646.347656 L 444.484375 646.347656 C 445.601562 646.347656 446.46875 646.019531 447.085938 645.367188 C 447.703125 644.710938 448.007812 643.835938 448.007812 642.738281 C 448.007812 642.027344 447.875 641.417969 447.605469 640.917969 C 447.335938 640.417969 446.9375 640.035156 446.40625 639.761719 C 445.878906 639.492188 445.238281 639.359375 444.484375 639.359375 L 435.273438 639.359375 Z M 432.328125 656.65625 L 432.328125 636.847656 L 444.976562 636.847656 C 446.324219 636.847656 447.441406 637.101562 448.328125 637.613281 C 449.210938 638.121094 449.875 638.820312 450.320312 639.703125 C 450.761719 640.589844 450.984375 641.589844 450.984375 642.707031 C 450.984375 644.015625 450.671875 645.167969 450.046875 646.160156 C 449.417969 647.152344 448.519531 647.867188 447.34375 648.308594 L 451.589844 656.65625 L 448.328125 656.65625 L 444.429688 648.828125 L 435.273438 648.828125 L 435.273438 656.65625 Z M 432.328125 656.65625 "/>
<path fill-rule="nonzero" fill="rgb(0%, 19.999695%, 59.999084%)" fill-opacity="1" d="M 459.878906 649.378906 L 468.6875 649.378906 L 466.027344 643.34375 C 465.933594 643.152344 465.8125 642.882812 465.667969 642.535156 C 465.523438 642.1875 465.375 641.824219 465.21875 641.4375 C 465.066406 641.050781 464.917969 640.675781 464.773438 640.3125 C 464.628906 639.945312 464.507812 639.636719 464.410156 639.386719 L 464.179688 639.386719 C 464.027344 639.792969 463.84375 640.25 463.632812 640.757812 C 463.417969 641.269531 463.21875 641.753906 463.027344 642.21875 C 462.832031 642.679688 462.679688 643.054688 462.5625 643.34375 Z M 453.613281 656.65625 L 462.5625 636.847656 L 466.203125 636.847656 L 475.152344 656.65625 L 471.949219 656.65625 L 469.8125 651.863281 L 458.78125 651.863281 L 456.671875 656.65625 Z M 453.613281 656.65625 "/>
<path fill-rule="nonzero" fill="rgb(0%, 19.999695%, 59.999084%)" fill-opacity="1" d="M 481.074219 656.65625 L 481.074219 639.414062 L 473.191406 639.414062 L 473.191406 636.847656 L 491.933594 636.847656 L 491.933594 639.414062 L 484.019531 639.414062 L 484.019531 656.65625 Z M 481.074219 656.65625 "/>
<path fill-rule="nonzero" fill="rgb(0%, 19.999695%, 59.999084%)" fill-opacity="1" d="M 495.425781 636.847656 L 498.371094 636.847656 L 498.371094 656.65625 L 495.425781 656.65625 Z M 495.425781 636.847656 "/>
<path fill-rule="nonzero" fill="rgb(0%, 19.999695%, 59.999084%)" fill-opacity="1" d="M 514.253906 654.488281 C 515.46875 654.488281 516.566406 654.34375 517.5625 654.058594 C 518.550781 653.769531 519.414062 653.320312 520.144531 652.714844 C 520.878906 652.109375 521.441406 651.339844 521.835938 650.402344 C 522.230469 649.46875 522.425781 648.359375 522.425781 647.070312 L 522.425781 646.433594 C 522.425781 645.144531 522.230469 644.027344 521.835938 643.085938 C 521.441406 642.140625 520.878906 641.371094 520.144531 640.773438 C 519.414062 640.175781 518.550781 639.734375 517.5625 639.445312 C 516.566406 639.15625 515.46875 639.011719 514.253906 639.011719 C 513.042969 639.011719 511.9375 639.15625 510.949219 639.445312 C 509.957031 639.734375 509.09375 640.175781 508.363281 640.773438 C 507.632812 641.371094 507.066406 642.140625 506.671875 643.085938 C 506.28125 644.027344 506.082031 645.144531 506.082031 646.433594 L 506.082031 647.070312 C 506.082031 648.359375 506.28125 649.46875 506.671875 650.402344 C 507.066406 651.339844 507.632812 652.109375 508.363281 652.714844 C 509.09375 653.320312 509.957031 653.769531 510.949219 654.058594 C 511.9375 654.34375 513.042969 654.488281 514.253906 654.488281 M 514.253906 657.003906 C 511.945312 657.003906 509.945312 656.617188 508.261719 655.847656 C 506.578125 655.078125 505.289062 653.933594 504.390625 652.410156 C 503.496094 650.890625 503.050781 649.003906 503.050781 646.75 C 503.050781 644.480469 503.496094 642.589844 504.390625 641.078125 C 505.289062 639.566406 506.578125 638.425781 508.261719 637.65625 C 509.945312 636.886719 511.945312 636.5 514.253906 636.5 C 516.582031 636.5 518.585938 636.886719 520.261719 637.65625 C 521.933594 638.425781 523.21875 639.566406 524.117188 641.078125 C 525.011719 642.589844 525.460938 644.480469 525.460938 646.75 C 525.460938 649.003906 525.011719 650.890625 524.117188 652.410156 C 523.21875 653.933594 521.933594 655.078125 520.261719 655.847656 C 518.585938 656.617188 516.582031 657.003906 514.253906 657.003906 "/>
<path fill-rule="nonzero" fill="rgb(0%, 19.999695%, 59.999084%)" fill-opacity="1" d="M 530.136719 656.65625 L 530.136719 636.847656 L 532.996094 636.847656 L 543.996094 649.667969 C 544.171875 649.820312 544.367188 650.035156 544.589844 650.300781 C 544.8125 650.574219 545.03125 650.84375 545.253906 651.109375 C 545.472656 651.382812 545.660156 651.621094 545.816406 651.835938 L 545.992188 651.835938 C 545.992188 651.488281 545.984375 651.101562 545.976562 650.679688 C 545.964844 650.257812 545.960938 649.871094 545.960938 649.523438 L 545.960938 636.847656 L 548.820312 636.847656 L 548.820312 656.65625 L 546.132812 656.65625 L 535.015625 643.660156 C 534.707031 643.335938 534.371094 642.945312 534.007812 642.492188 C 533.640625 642.039062 533.351562 641.679688 533.140625 641.410156 L 532.964844 641.410156 C 532.964844 641.71875 532.96875 642.097656 532.980469 642.550781 C 532.992188 643.003906 532.996094 643.46875 532.996094 643.949219 L 532.996094 656.65625 Z M 530.136719 656.65625 "/>
<path fill-rule="nonzero" fill="rgb(0%, 19.999695%, 59.999084%)" fill-opacity="1" d="M 570.566406 657.003906 C 569.3125 657.003906 568.121094 656.90625 566.984375 656.714844 C 565.847656 656.523438 564.847656 656.199219 563.980469 655.746094 C 563.113281 655.292969 562.425781 654.675781 561.917969 653.898438 C 561.40625 653.117188 561.152344 652.140625 561.152344 650.96875 C 561.152344 650.851562 561.15625 650.75 561.164062 650.664062 C 561.175781 650.578125 561.179688 650.503906 561.179688 650.445312 L 564.125 650.445312 C 564.125 650.523438 564.121094 650.625 564.109375 650.75 C 564.101562 650.875 564.097656 651.003906 564.097656 651.140625 C 564.097656 651.871094 564.355469 652.492188 564.875 653.003906 C 565.394531 653.515625 566.140625 653.894531 567.113281 654.144531 C 568.085938 654.394531 569.207031 654.519531 570.476562 654.519531 C 571.054688 654.519531 571.640625 654.484375 572.242188 654.417969 C 572.835938 654.351562 573.398438 654.246094 573.929688 654.101562 C 574.460938 653.957031 574.929688 653.765625 575.34375 653.523438 C 575.757812 653.28125 576.085938 652.984375 576.328125 652.628906 C 576.566406 652.273438 576.6875 651.855469 576.6875 651.371094 C 576.6875 650.71875 576.480469 650.183594 576.066406 649.769531 C 575.652344 649.355469 575.089844 649.019531 574.378906 648.757812 C 573.664062 648.496094 572.859375 648.273438 571.964844 648.078125 C 571.070312 647.886719 570.152344 647.695312 569.207031 647.5 C 568.265625 647.308594 567.34375 647.078125 566.449219 646.808594 C 565.554688 646.539062 564.75 646.203125 564.039062 645.796875 C 563.328125 645.394531 562.761719 644.871094 562.347656 644.226562 C 561.933594 643.578125 561.726562 642.785156 561.726562 641.839844 C 561.726562 641.03125 561.90625 640.300781 562.261719 639.648438 C 562.621094 638.992188 563.164062 638.429688 563.894531 637.957031 C 564.625 637.484375 565.542969 637.125 566.652344 636.875 C 567.757812 636.625 569.074219 636.5 570.59375 636.5 C 571.980469 636.5 573.199219 636.628906 574.246094 636.890625 C 575.296875 637.148438 576.175781 637.519531 576.890625 638 C 577.601562 638.480469 578.136719 639.0625 578.492188 639.734375 C 578.847656 640.40625 579.027344 641.160156 579.027344 641.984375 L 579.027344 642.449219 L 576.109375 642.449219 L 576.109375 641.957031 C 576.109375 641.378906 575.886719 640.871094 575.445312 640.425781 C 575.003906 639.984375 574.382812 639.632812 573.582031 639.371094 C 572.785156 639.113281 571.835938 638.984375 570.738281 638.984375 C 569.390625 638.984375 568.273438 639.09375 567.386719 639.316406 C 566.503906 639.535156 565.839844 639.851562 565.394531 640.253906 C 564.953125 640.65625 564.730469 641.128906 564.730469 641.667969 C 564.730469 642.265625 564.9375 642.75 565.351562 643.125 C 565.765625 643.503906 566.328125 643.8125 567.042969 644.050781 C 567.753906 644.292969 568.558594 644.503906 569.453125 644.6875 C 570.347656 644.871094 571.265625 645.058594 572.210938 645.25 C 573.15625 645.441406 574.074219 645.671875 574.96875 645.941406 C 575.863281 646.210938 576.667969 646.558594 577.378906 646.980469 C 578.089844 647.40625 578.660156 647.941406 579.085938 648.585938 C 579.507812 649.230469 579.71875 650.023438 579.71875 650.96875 C 579.71875 652.429688 579.328125 653.605469 578.550781 654.488281 C 577.769531 655.375 576.691406 656.015625 575.316406 656.410156 C 573.9375 656.804688 572.355469 657.003906 570.566406 657.003906 "/>
<path fill-rule="nonzero" fill="rgb(0%, 19.999695%, 59.999084%)" fill-opacity="1" d="M 584.195312 636.847656 L 587.140625 636.847656 L 587.140625 656.65625 L 584.195312 656.65625 Z M 584.195312 636.847656 "/>
<path fill-rule="nonzero" fill="rgb(0%, 19.999695%, 59.999084%)" fill-opacity="1" d="M 592.742188 656.65625 L 592.742188 636.847656 L 597.246094 636.847656 L 602.503906 649.464844 C 602.640625 649.773438 602.78125 650.148438 602.9375 650.59375 C 603.089844 651.035156 603.25 651.472656 603.414062 651.90625 C 603.578125 652.339844 603.71875 652.71875 603.832031 653.046875 L 604.007812 653.046875 C 604.121094 652.738281 604.25 652.371094 604.394531 651.949219 C 604.539062 651.527344 604.691406 651.09375 604.855469 650.648438 C 605.019531 650.207031 605.160156 649.820312 605.277344 649.496094 L 610.53125 636.847656 L 615.007812 636.847656 L 615.007812 656.65625 L 612.0625 656.65625 L 612.0625 644.46875 C 612.0625 644.007812 612.066406 643.488281 612.078125 642.910156 C 612.085938 642.332031 612.101562 641.789062 612.121094 641.277344 C 612.140625 640.769531 612.148438 640.367188 612.148438 640.082031 L 611.917969 640.082031 C 611.839844 640.332031 611.730469 640.664062 611.585938 641.078125 C 611.441406 641.492188 611.296875 641.914062 611.152344 642.347656 C 611.007812 642.78125 610.867188 643.160156 610.734375 643.488281 L 605.1875 656.65625 L 602.476562 656.65625 L 596.929688 643.488281 C 596.777344 643.140625 596.628906 642.765625 596.484375 642.363281 C 596.339844 641.957031 596.199219 641.554688 596.0625 641.148438 C 595.929688 640.746094 595.8125 640.386719 595.71875 640.082031 L 595.488281 640.082031 C 595.507812 640.445312 595.519531 640.886719 595.53125 641.410156 C 595.539062 641.929688 595.550781 642.457031 595.558594 642.996094 C 595.566406 643.535156 595.574219 644.027344 595.574219 644.46875 L 595.574219 656.65625 Z M 592.742188 656.65625 "/>
<path fill-rule="nonzero" fill="rgb(0%, 19.999695%, 59.999084%)" fill-opacity="1" d="M 623.554688 646.605469 L 632.015625 646.605469 C 633.171875 646.605469 634.066406 646.277344 634.703125 645.625 C 635.335938 644.96875 635.65625 644.085938 635.65625 642.96875 C 635.65625 642.21875 635.515625 641.570312 635.238281 641.03125 C 634.957031 640.496094 634.546875 640.082031 634.007812 639.792969 C 633.46875 639.503906 632.804688 639.359375 632.015625 639.359375 L 623.554688 639.359375 Z M 620.609375 656.65625 L 620.609375 636.847656 L 632.535156 636.847656 C 633.84375 636.847656 634.953125 637.105469 635.859375 637.625 C 636.761719 638.144531 637.449219 638.863281 637.921875 639.777344 C 638.394531 640.691406 638.628906 641.746094 638.628906 642.9375 C 638.628906 644.152344 638.378906 645.226562 637.878906 646.160156 C 637.378906 647.09375 636.667969 647.820312 635.753906 648.339844 C 634.839844 648.859375 633.75 649.121094 632.476562 649.121094 L 623.554688 649.121094 L 623.554688 656.65625 Z M 620.609375 656.65625 "/>
<path fill-rule="nonzero" fill="rgb(0%, 19.999695%, 59.999084%)" fill-opacity="1" d="M 642.382812 656.65625 L 642.382812 636.847656 L 645.328125 636.847656 L 645.328125 654.085938 L 656.476562 654.085938 L 656.476562 656.65625 Z M 642.382812 656.65625 "/>
<path fill-rule="nonzero" fill="rgb(0%, 19.999695%, 59.999084%)" fill-opacity="1" d="M 659.96875 636.847656 L 662.914062 636.847656 L 662.914062 656.65625 L 659.96875 656.65625 Z M 659.96875 636.847656 "/>
<path fill-rule="nonzero" fill="rgb(0%, 19.999695%, 59.999084%)" fill-opacity="1" d="M 668.515625 656.65625 L 668.515625 636.847656 L 684.691406 636.847656 L 684.691406 639.359375 L 671.464844 639.359375 L 671.464844 645.511719 L 683.5625 645.511719 L 683.5625 648.019531 L 671.464844 648.019531 L 671.464844 656.65625 Z M 668.515625 656.65625 "/>
<path fill-rule="nonzero" fill="rgb(0%, 19.999695%, 59.999084%)" fill-opacity="1" d="M 688.644531 636.847656 L 691.589844 636.847656 L 691.589844 656.65625 L 688.644531 656.65625 Z M 688.644531 636.847656 "/>
<path fill-rule="nonzero" fill="rgb(0%, 19.999695%, 59.999084%)" fill-opacity="1" d="M 697.191406 656.65625 L 697.191406 636.847656 L 714.578125 636.847656 L 714.578125 639.359375 L 700.136719 639.359375 L 700.136719 645.25 L 713.132812 645.25 L 713.132812 647.761719 L 700.136719 647.761719 L 700.136719 654.144531 L 714.78125 654.144531 L 714.78125 656.65625 Z M 697.191406 656.65625 "/>
<path fill-rule="nonzero" fill="rgb(0%, 19.999695%, 59.999084%)" fill-opacity="1" d="M 722.460938 654.144531 L 728.179688 654.144531 C 729.3125 654.144531 730.355469 654.007812 731.296875 653.738281 C 732.238281 653.46875 733.058594 653.050781 733.75 652.484375 C 734.445312 651.914062 734.980469 651.183594 735.355469 650.289062 C 735.730469 649.394531 735.917969 648.320312 735.917969 647.070312 L 735.917969 646.460938 C 735.917969 645.191406 735.730469 644.109375 735.355469 643.214844 C 734.980469 642.316406 734.449219 641.585938 733.765625 641.019531 C 733.082031 640.453125 732.269531 640.035156 731.324219 639.761719 C 730.382812 639.492188 729.332031 639.359375 728.179688 639.359375 L 722.460938 639.359375 Z M 719.515625 656.65625 L 719.515625 636.847656 L 728.265625 636.847656 C 730.496094 636.847656 732.410156 637.207031 733.996094 637.929688 C 735.585938 638.652344 736.808594 639.746094 737.664062 641.207031 C 738.519531 642.667969 738.949219 644.519531 738.949219 646.75 C 738.949219 648.964844 738.519531 650.808594 737.664062 652.28125 C 736.808594 653.753906 735.585938 654.851562 733.996094 655.574219 C 732.410156 656.292969 730.496094 656.65625 728.265625 656.65625 Z M 719.515625 656.65625 "/>
<path fill-rule="nonzero" fill="rgb(0%, 19.999695%, 59.999084%)" fill-opacity="1" d="M 740.824219 615.65625 L 333.363281 615.65625 L 333.363281 613.65625 L 740.824219 613.65625 Z M 740.824219 615.65625 "/>
</svg>
